# xmcd CD database file
#
# Track frame offsets:
#	225
#	20724
#	37340
#	61066
#	85410
#	115324
#	132445
#	159508
#	184481
#	210933
#	232684
#	263021
#
# Disc length: 3799 seconds
#
# Revision: 0
# Processed by: cddbd v1.4PL0 Copyright (c) Steve Scherf et al.
# Submitted via: CDex 1.50beta10
#
DISCID=a30ed40c
DTITLE=Tom Grant - Tom Grant
DYEAR=2000
DGENRE=Jazz
TTITLE0=Fantasy
TTITLE1=Just The Right Moment
TTITLE2=Listen Vary Hard
TTITLE3=Norwegian Wood
TTITLE4=Blue Voyage
TTITLE5=It Could Happen To You
TTITLE6=Private Beach
TTITLE7=Heidi's Song
TTITLE8=Alpha Centauri
TTITLE9=Teach Me Tonight
TTITLE10=Morning Show
TTITLE11=S.O.S.
EXTD=YEAR: 2000
EXTT0=
EXTT1=
EXTT2=
EXTT3=
EXTT4=
EXTT5=
EXTT6=
EXTT7=
EXTT8=
EXTT9=
EXTT10=
EXTT11=
PLAYORDER=
